<?xml version="1.0" standalone="no"?>
<!DOCTYPE svg PUBLIC "-//W3C//DTD SVG 20010904//EN"
 "http://www.w3.org/TR/2001/REC-SVG-20010904/DTD/svg10.dtd">
<svg version="1.0" xmlns="http://www.w3.org/2000/svg"
 width="64.000000pt" height="64.000000pt" viewBox="0 0 64.000000 64.000000"
 preserveAspectRatio="xMidYMid meet">

<g transform="translate(0.000000,64.000000) scale(0.100000,-0.100000)"
fill="#000000" stroke="none">
<path d="M435 590 c-67 -48 -72 -50 -136 -50 l-66 0 -97 -77 -96 -76 0 -194 0
-193 170 0 170 0 0 145 0 144 108 3 107 3 3 46 3 46 -60 39 c-34 21 -61 42
-61 45 0 3 11 38 25 78 23 68 25 91 7 91 -4 0 -39 -22 -77 -50z m23 -65 c-9
-29 -14 -33 -30 -24 -24 13 -23 23 5 42 33 23 36 21 25 -18z m-163 -33 c-67
-59 -217 -174 -221 -169 -28 28 141 177 200 177 17 0 26 -4 21 -8z m55 -217
c0 -117 -4 -205 -9 -205 -5 0 -64 45 -131 101 -79 65 -119 104 -112 111 25 25
238 197 245 197 4 1 7 -91 7 -204z m131 147 c117 -81 116 -92 -5 -92 l-96 0 0
75 c0 41 4 75 8 75 5 0 47 -26 93 -58z m-181 -379 c0 -1 -49 -3 -110 -3 l-110
0 0 95 0 96 110 -92 c60 -51 110 -94 110 -96z"/>
</g>
</svg>
