<svg xmlns="http://www.w3.org/2000/svg" width="24" height="24" viewBox="0 0 24 24">
    <path d="M11.86 1.6c1.9 0 3.67.44 5.3 1.31a9.8 9.8 0 0 1 5.24 8.75c0 2.27-.65 4.32-1.96 6.12a9.95 9.95 0 0 1-5.09 3.73c-.23.05-.4.03-.53-.07a.52.52 0 0 1-.2-.42v-3.46c0-.89-.22-1.5-.7-1.9 1.03-.1 1.8-.25 2.3-.42.79-.27 1.39-.7 1.81-1.24.48-.71.7-1.7.7-2.94 0-.52-.1-.99-.3-1.36-.14-.27-.4-.61-.8-1.03.1-.28.18-.62.2-1a4.67 4.67 0 0 0-.3-1.82c-.22-.05-.62.02-1.13.22-.32.15-.72.32-1.18.57l-.55.37a9.73 9.73 0 0 0-5.27 0l-.55-.37a8.54 8.54 0 0 0-1.2-.57c-.5-.2-.88-.24-1.13-.17a3.9 3.9 0 0 0-.3 1.83c0 .4.05.69.17.94-.32.42-.57.79-.73 1.13-.15.35-.22.77-.22 1.31 0 1.24.22 2.2.68 2.9.4.56.97 1 1.75 1.28.5.17 1.26.3 2.26.42-.35.32-.58.79-.68 1.4-.47.23-.92.3-1.38.25a2.02 2.02 0 0 1-1.68-1.1c-.17-.3-.4-.55-.68-.75l-.62-.3-.3-.05c-.3 0-.48.05-.48.15-.03.1.05.2.2.32l.2.18c.2.1.4.3.58.54.17.2.3.42.42.67l.18.32c.15.42.4.74.8.94a3 3 0 0 0 1.2.37c.33.02.69.02 1.06-.05l.45-.05.05 2.52c0 .17-.07.3-.2.42-.12.1-.3.15-.52.07a10.13 10.13 0 0 1-5.17-3.73 10.34 10.34 0 0 1-1.96-6.15c0-1.88.45-3.58 1.33-5.11a9.93 9.93 0 0 1 3.69-3.64 10.53 10.53 0 0 1 5.24-1.33ZM5.21 15.51c.05-.05.13-.07.2-.02.08.05.1.1.08.17-.03.07-.1.07-.2.02s-.1-.12-.08-.17Zm.45.35c.05-.05.13-.05.2.05.08.07.1.14.06.2-.05.04-.13.04-.2-.06-.1-.07-.1-.14-.06-.2Zm.43.52c.05-.03.1-.03.15-.03a.2.2 0 0 1 .1.1c.08.1.08.2 0 .25a.08.08 0 0 1-.1 0c-.02-.03-.1-.05-.15-.08-.05-.12-.05-.22 0-.24Zm.5.59c.03-.03.08-.03.13-.03l.15.08c.05.05.07.1.07.15.03.05 0 .1-.02.12-.08.07-.18.07-.3-.05a.22.22 0 0 1-.08-.17c0-.08.03-.08.05-.1Zm.68.52c.03-.1.1-.15.25-.1.15.05.2.1.2.17-.02.08-.05.13-.1.15-.05.02-.1.02-.17 0-.08-.02-.1-.07-.15-.1-.05-.05-.05-.07-.03-.12Zm1.28.17c0-.02-.02-.05-.08-.07a.4.4 0 0 0-.2-.05c-.15 0-.2.05-.2.17 0 .1.08.15.23.15.17-.03.25-.08.25-.2Zm.55-.25c.15 0 .23.05.23.13.02.07-.05.15-.2.2-.05 0-.1 0-.15-.03-.05-.02-.08-.07-.08-.15 0-.07.08-.12.2-.15Z"
          fill="#000000"></path>
</svg>